<?xml version="1.0" standalone="no"?>
<!DOCTYPE svg PUBLIC "-//W3C//DTD SVG 20010904//EN"
 "http://www.w3.org/TR/2001/REC-SVG-20010904/DTD/svg10.dtd">
<svg version="1.0" xmlns="http://www.w3.org/2000/svg"
 width="221.000000pt" height="153.000000pt" viewBox="0 0 221.000000 153.000000"
 preserveAspectRatio="xMidYMid meet">

<g transform="translate(0.000000,153.000000) scale(0.100000,-0.100000)"
fill="#000000" stroke="none">
<path d="M820 1015 l0 -316 58 3 57 3 0 310 0 310 -57 3 -58 3 0 -316z"/>
<path d="M1010 1133 c0 -138 4 -212 14 -243 l13 -45 12 40 c6 24 11 123 11
243 l0 202 -25 0 -25 0 0 -197z"/>
<path d="M1274 1315 c-4 -9 -4 -40 0 -69 5 -50 4 -54 -24 -75 -32 -23 -37 -45
-19 -83 8 -19 2 -41 -37 -128 -84 -190 -101 -300 -26 -177 18 29 32 64 32 77
0 13 8 32 17 43 10 10 31 48 48 84 l30 65 44 -101 c24 -56 47 -101 50 -101 4
0 15 6 24 13 14 11 12 21 -24 105 -35 81 -39 98 -30 123 12 35 1 73 -26 88
-15 8 -18 23 -18 78 0 56 -3 68 -18 71 -9 2 -20 -4 -23 -13z"/>
<path d="M1412 821 c-20 -12 14 -91 38 -91 29 0 34 19 15 61 -18 39 -29 46
-53 30z"/>
<path d="M300 395 c0 -99 3 -105 44 -89 13 5 16 22 16 83 0 79 -9 101 -42 101
-16 0 -18 -10 -18 -95z m40 0 c0 -43 -4 -75 -10 -75 -6 0 -10 32 -10 75 0 43
4 75 10 75 6 0 10 -32 10 -75z"/>
<path d="M430 395 c0 -62 4 -94 10 -90 6 3 10 44 10 90 0 46 -4 87 -10 90 -6
4 -10 -28 -10 -90z"/>
<path d="M525 477 c-3 -7 -5 -49 -3 -93 3 -71 5 -79 23 -79 17 0 20 8 23 48 3
38 0 47 -14 47 -13 0 -14 -3 -4 -14 14 -18 10 -58 -7 -64 -10 -3 -13 15 -13
67 0 72 11 95 30 64 9 -16 10 -15 8 7 -3 27 -35 40 -43 17z"/>
<path d="M647 483 c-11 -11 -8 -183 3 -183 6 0 10 38 10 95 0 95 -1 101 -13
88z"/>
<path d="M690 480 c0 -5 5 -10 10 -10 6 0 10 -33 10 -79 0 -44 5 -83 10 -86 6
-4 10 24 10 75 0 73 2 82 20 87 34 9 22 23 -20 23 -22 0 -40 -4 -40 -10z"/>
<path d="M846 459 c-3 -19 -10 -61 -16 -93 -9 -56 -8 -77 6 -63 4 3 9 27 12
52 5 51 22 43 22 -11 0 -32 8 -47 20 -39 9 6 -18 167 -30 179 -5 5 -11 -6 -14
-25z"/>
<path d="M970 395 c0 -94 0 -95 24 -95 14 0 28 5 31 10 3 6 -3 10 -14 10 -20
0 -21 6 -21 85 0 50 -4 85 -10 85 -6 0 -10 -38 -10 -95z"/>
<path d="M1170 395 c0 -57 4 -95 10 -95 6 0 10 20 10 44 0 35 4 45 20 49 16 4
20 14 20 45 0 39 -11 52 -46 52 -11 0 -14 -20 -14 -95z m40 40 c0 -19 -4 -35
-10 -35 -5 0 -10 16 -10 35 0 19 5 35 10 35 6 0 10 -16 10 -35z"/>
<path d="M1290 395 c0 -57 4 -95 10 -95 6 0 10 18 10 40 0 22 5 40 10 40 6 0
10 -18 10 -40 0 -22 5 -40 10 -40 6 0 10 36 10 89 0 72 -3 90 -16 95 -41 16
-44 10 -44 -89z m40 40 c0 -19 -4 -35 -10 -35 -5 0 -10 16 -10 35 0 19 5 35
10 35 6 0 10 -16 10 -35z"/>
<path d="M1425 477 c-3 -7 -5 -49 -3 -93 3 -77 4 -79 28 -79 25 0 25 1 25 90
0 86 -1 90 -23 93 -12 2 -24 -3 -27 -11z m35 -82 c0 -43 -4 -75 -10 -75 -6 0
-10 32 -10 75 0 43 4 75 10 75 6 0 10 -32 10 -75z"/>
<path d="M1580 407 c0 -77 -10 -110 -23 -74 -2 6 -8 9 -12 5 -15 -14 5 -39 27
-36 22 3 23 8 26 87 2 49 -1 88 -8 95 -7 7 -10 -17 -10 -77z"/>
<path d="M1647 483 c-4 -3 -7 -46 -7 -95 0 -87 0 -88 24 -88 14 0 28 5 31 10
3 6 -3 10 -14 10 -17 0 -21 6 -21 35 0 24 5 35 15 35 8 0 15 5 15 10 0 6 -7
10 -15 10 -10 0 -15 10 -15 30 0 19 5 30 14 30 8 0 18 5 21 10 7 11 -38 14
-48 3z"/>
<path d="M1777 483 c-4 -3 -7 -44 -7 -90 0 -65 3 -85 15 -89 8 -4 22 -1 30 6
17 14 20 50 5 50 -5 0 -10 -9 -10 -21 0 -12 -5 -19 -12 -16 -9 2 -13 26 -13
70 0 66 15 91 25 45 5 -20 7 -21 13 -5 13 34 -24 73 -46 50z"/>
<path d="M1855 480 c-3 -5 1 -10 9 -10 13 0 16 -15 16 -85 0 -50 4 -85 10 -85
6 0 10 35 10 85 0 69 3 85 15 85 8 0 15 5 15 10 0 6 -15 10 -34 10 -19 0 -38
-4 -41 -10z"/>
</g>
</svg>
