<?xml version="1.0" standalone="no"?>
<!DOCTYPE svg PUBLIC "-//W3C//DTD SVG 20010904//EN"
 "http://www.w3.org/TR/2001/REC-SVG-20010904/DTD/svg10.dtd">
<svg version="1.0" xmlns="http://www.w3.org/2000/svg"
 width="221.000000pt" height="153.000000pt" viewBox="0 0 221.000000 153.000000"
 preserveAspectRatio="xMidYMid meet">
<metadata>
Created by potrace 1.16, written by Peter Selinger 2001-2019
</metadata>
<g transform="translate(0.000000,153.000000) scale(0.100000,-0.100000)"
fill="#000000" stroke="none">
<path d="M820 1015 l0 -316 58 3 57 3 0 310 0 310 -57 3 -58 3 0 -316z"/>
<path d="M1010 1133 c0 -138 4 -212 14 -243 l13 -45 12 40 c6 24 11 123 11
243 l0 202 -25 0 -25 0 0 -197z"/>
<path d="M1274 1315 c-4 -9 -4 -40 0 -69 5 -50 4 -54 -24 -75 -32 -23 -37 -45
-19 -83 8 -19 2 -41 -37 -128 -84 -190 -101 -300 -26 -177 18 29 32 64 32 77
0 13 8 32 17 43 10 10 31 48 48 84 l30 65 44 -101 c24 -56 47 -101 50 -101 4
0 15 6 24 13 14 11 12 21 -24 105 -35 81 -39 98 -30 123 12 35 1 73 -26 88
-15 8 -18 23 -18 78 0 56 -3 68 -18 71 -9 2 -20 -4 -23 -13z"/>
</g>
</svg>
