<svg height="512" viewBox="0 0 64 64" width="512" xmlns="http://www.w3.org/2000/svg"><g id="Glyph"><path d="m40.481 4.4a9.979 9.979 0 0 1 3.519 7.6v43a6.973 6.973 0 0 1 -2.111 5h.111a4 4 0 0 0 4-4v-44a8.012 8.012 0 0 0 -5.519-7.6z"/><path d="m42 12a8.009 8.009 0 0 0 -8-8h-1c-2.785 0-4.889 1.064-7.26 3.673l-7.033 7.034a4.721 4.721 0 0 0 -1.157 3.293 4.721 4.721 0 0 0 1.157 3.293 5.28 5.28 0 0 0 6.586 0l4.939-5.934a1 1 0 0 1 1.768.641v39a5 5 0 0 0 10 0zm-12.74-2.558-8.525 9.237-1.47-1.358 8.526-9.235a6.969 6.969 0 0 1 9.026-1.076l1.738 1.158-1.11 1.664-1.737-1.158a4.978 4.978 0 0 0 -6.448.768zm8.74 48.558h-1a3 3 0 0 1 -3-3v-11h2v11a1 1 0 0 0 1 1h1zm2-45h-2v-2h2z"/></g></svg>