<?xml version="1.0" encoding="UTF-8"?>
<svg xmlns="http://www.w3.org/2000/svg" viewBox="0 0 64 64" width="512" height="512"><g id="Glyph"><path d="M40.785,52H27a1,1,0,0,1-.762-1.647L43,30.633V17.4A13.186,13.186,0,0,0,30.63,4.015,13,13,0,0,0,17,17v4a4,4,0,0,0,8,0V19a6,6,0,0,1,12,0v6a1,1,0,0,1-.274.688l-18,19C16.512,46.723,15,49.709,15,52c0,4.636,3.725,8,8.858,8H41a4,4,0,0,0,3.981-4.4A4.149,4.149,0,0,0,40.785,52ZM32,8H30a9.01,9.01,0,0,0-9,9v1H19V17A11.013,11.013,0,0,1,30,6h2ZM27,58H23a6.143,6.143,0,0,1-5.675-3.825c-1.085-2.619-.349-5.566,1.968-7.882l2-2,1.414,1.414-2,2c-1.725,1.726-2.3,3.856-1.534,5.7A4.147,4.147,0,0,0,23,56h4Zm4,0H29V56h2Z"/><path d="M45.445,52.045a5.8,5.8,0,0,1,1.527,3.369,6.027,6.027,0,0,1-1.461,4.534,3.978,3.978,0,0,0-.066-7.9Z"/><path d="M29,15.556A3.987,3.987,0,0,0,27,19v2a5.964,5.964,0,0,1-1.265,3.672A5,5,0,0,0,29,20Z"/><path d="M45,17.4V31a1,1,0,0,1-.238.647L29.163,50h2.371L47,31.635V16A12.009,12.009,0,0,0,38.066,4.412,15.461,15.461,0,0,1,45,17.4Z"/></g></svg>
